{"title":"My So Take.2010.CAM.LU.avi","uid":5887992,"size":727858015,"categoryP":"video","categoryS":"movies","magnet":"?xt=urn:btih:ca2885b40e321bf952e3b551988b479eeed49d18&amp;dn=My+So+Take.2010.CAM.LU.avi&amp;tr=udp%3A%2F%2Ftracker.openbittorrent.com%3A80&amp;tr=udp%3A%2F%2Fopen.demonii.com%3A1337&amp;tr=udp%3A%2F%2Ftracker.coppersurfer.tk%3A6969&amp;tr=udp%3A%2F%2Fexodus.desync.com%3A6969","seeders":0,"leechers":1,"uploader":"SAFCukO09","files":52,"time":1287130560,"description":"[img]http://img176.imageshack.us/img176/4513/mysoultotake.jpg[/img]\n\nGeneral\n\nComplete name : My Soul to Take.2010.CAM.LU.avi\n\nFormat : AVI\n\nFormat/Info : Audio Video Interleave\n\nFile size : 701 MiB\n\nDuration : 1h 37mn\n\nOverall bit rate : 1 005 Kbps\n\nWriting application : VirtualDubMod 1.5.10.2 (build 2540/release)\n\nWriting library : VirtualDub build 32706/release\n\n\n\nVideo\n\nID : 0\n\nFormat : MPEG-4 Visual\n\nFormat profile : Advanced Simple@L5\n\nFormat settings, BVOP : Yes\n\nFormat settings, QPel : No\n\nFormat settings, GMC : No warppoints\n\nFormat settings, Matrix : Default (H.263)\n\nCodec ID : XVID\n\nCodec ID/Hint : XviD\n\nDuration : 1h 37mn\n\nBit rate : 867 Kbps\n\nWidth : 720 pixels\n\nHeight : 272 pixels\n\nDisplay aspect ratio : 2.647\n\nFrame rate : 25.000 fps\n\nColor space : YUV\n\nChroma subsampling : 4:2:0\n\nBit depth : 8 bits\n\nScan type : Progressive\n\nBits/(Pixel*Frame) : 0.177\n\nStream size : 605 MiB (86%)\n\nWriting library : XviD 1.2.1 (UTC 2008-12-04)\n\n\n\nAudio\n\nID : 1\n\nFormat : MPEG Audio\n\nFormat version : Version 1\n\nFormat profile : Layer 3\n\nMode : Joint stereo\n\nMode extension : MS Stereo\n\nCodec ID : 55\n\nCodec ID/Hint : MP3\n\nDuration : 1h 37mn\n\nBit rate mode : Constant\n\nBit rate : 128 Kbps\n\nChannel(s) : 2 channels\n\nSampling rate : 44.1 KHz\n\nStream size : 89.3 MiB (13%)\n\nAlignment : Split accross interleaves\n\nInterleave, duration : 40 ms (1.00 video frame)\n\nInterleave, preload duration : 500 ms\n\n\n\nnotes\n\n\n\nRUSSIAN VIDEO THANKS\n\n\n\nAUDIO IS ENGLISH AND MINE LU\n\n\n\nALL I DID WAS PUT MY AUDIO TO THE RUSSIAN VIDEO AND I MUST SAY IT IS NICE CAM AUDIO , THE VIDEO ITS SELF IS A BIT DARK\n\n\n\nAND THANKS TO BOOBIES FOR GETING IT OUT THERE FOR ME ( SHOW THEM TO ME )","torrent":{"xt":"urn:btih:ca2885b40e321bf952e3b551988b479eeed49d18","amp;dn":"My+So+Take.2010.CAM.LU.avi","amp;tr":["udp%3A%2F%2Ftracker.openbittorrent.com%3A80","udp%3A%2F%2Fopen.demonii.com%3A1337","udp%3A%2F%2Ftracker.coppersurfer.tk%3A6969","udp%3A%2F%2Fexodus.desync.com%3A6969"],"infoHash":"ca2885b40e321bf952e3b551988b479eeed49d18","infoHashBuffer":{"type":"Buffer","data":[202,40,133,180,14,50,27,249,82,227,181,81,152,139,71,158,238,212,157,24]},"announce":[],"urlList":[]}}